<?xml version="1.0" encoding="UTF-8"?>
<svg id="Layer_2" xmlns="http://www.w3.org/2000/svg" viewBox="0 0 207.88 302.88">
  <defs>
    <style>
      .cls-1, .cls-2 {
        fill: none;
      }

      .cls-1, .cls-2, .cls-3, .cls-4 {
        stroke-miterlimit: 10;
      }

      .cls-1, .cls-5 {
        stroke: #000;
      }

      .cls-1, .cls-3, .cls-4 {
        stroke-width: .03px;
      }

      .cls-2 {
        stroke-width: 1.29px;
      }

      .cls-2, .cls-3 {
        stroke: #fb0f0c;
      }

      .cls-6, .cls-7, .cls-3, .cls-4 {
        fill-rule: evenodd;
      }

      .cls-6, .cls-5, .cls-4 {
        fill: #fff;
      }

      .cls-7, .cls-3 {
        fill: #fb0f0c;
      }

      .cls-5 {
        stroke-width: .5px;
      }

      .cls-4 {
        stroke: #fff;
      }
    </style>
  </defs>
  <g id="svg2">
    <g id="Layer_x5F_1">
      <path id="path5" class="cls-5" d="M207.63,294.05c0,4.71-3.84,8.58-8.55,8.58H8.79c-4.7,0-8.54-3.86-8.54-8.58V8.83C.25,4.11,4.09.25,8.79.25h190.28c4.71,0,8.55,3.86,8.55,8.58v285.22h0Z"/>
      <path id="path7" class="cls-3" d="M34.34,40.66h128.78c1.01,0,10.74-.46,10.74.37v218.34c0,.32.22,1.78-.18,1.78H35.19c-1.82,0-.85-5.07-.85-6.52V40.66"/>
      <path id="path9" class="cls-4" d="M76.7,119.92c5.57,0,54.81-.39,54.81.39v62.77c0,.63-54.81.08-54.81.23v-63.39"/>
      <path id="path11" class="cls-4" d="M104.1,114.15c-5.4,6.25-10.8,12.49-16.19,18.73-3.64,4.21-7.28,8.42-10.92,12.63-.84.98-5.27,4.74-5.27,6.1,0,1.25,4.08,4.71,4.85,5.61,3.78,4.38,7.56,8.75,11.34,13.12,5.4,6.24,10.8,12.49,16.19,18.73,5.4-6.25,10.8-12.49,16.19-18.73,3.64-4.21,7.28-8.42,10.92-12.63.84-.98,5.28-4.74,5.28-6.1,0-1.25-4.08-4.71-4.85-5.61-3.78-4.37-7.56-8.75-11.34-13.12-5.4-6.25-10.8-12.49-16.19-18.73"/>
      <path id="path13" class="cls-3" d="M79.19,122.8h47.59c2.87,0,2.24.25,2.24,3.13v52.87c0,2.62-1.52,1.65-4.02,1.65h-44.6c-1.96,0-1.21-1.27-1.21-3.13v-54.51"/>
      <path id="path15" class="cls-3" d="M104.1,117.04c-4.89,5.65-9.78,11.31-14.66,16.96-3.48,4.03-6.97,8.06-10.45,12.09-.76.89-4.78,4.3-4.78,5.53,0,1.12,3.66,4.23,4.36,5.04,3.44,3.98,6.87,7.95,10.31,11.93l15.23,17.62c4.89-5.66,9.78-11.31,14.66-16.96,3.49-4.03,6.97-8.06,10.46-12.09.76-.89,4.78-4.3,4.78-5.53,0-1.12-3.66-4.23-4.36-5.04-3.44-3.98-6.87-7.95-10.31-11.93-5.08-5.87-10.16-11.75-15.23-17.62"/>
      <path id="path17" class="cls-4" d="M84.17,128.56h32.46c1.35,0,7.4-.92,7.4.74v14.67c0,2.15.03,30.71-.02,30.71h-33.12c-1.32,0-6.72.9-6.72-.74v-45.38"/>
      <path id="path19" class="cls-4" d="M104.1,122.8l-12.46,14.41-8.35,9.66c-.66.76-4.11,3.69-4.11,4.75,0,.95,3.09,3.58,3.68,4.26,2.93,3.38,5.85,6.77,8.78,10.15,4.15,4.8,8.3,9.61,12.46,14.41,4.15-4.8,8.3-9.61,12.46-14.41,2.78-3.22,5.57-6.44,8.35-9.66.66-.76,4.11-3.69,4.11-4.75,0-.95-3.09-3.58-3.68-4.26-2.93-3.38-5.85-6.77-8.78-10.15-4.15-4.8-8.3-9.61-12.46-14.41"/>
      <path id="path21" class="cls-3" d="M86.66,131.45h31.89c3.84,0,2.99.34,2.99,4.2v35.32c0,1.86-6.52.84-8.04.84h-20.22c-2.35,0-6.62,1.38-6.62-1.46v-38.89"/>
      <path id="path23" class="cls-3" d="M104.1,125.68c-3.64,4.21-7.28,8.43-10.93,12.64-2.63,3.04-5.26,6.08-7.89,9.12-.58.67-3.61,3.25-3.61,4.18,0,.82,2.68,3.1,3.19,3.69,2.58,2.98,5.16,5.97,7.74,8.95,3.83,4.43,7.66,8.87,11.5,13.3,3.64-4.21,7.28-8.43,10.93-12.64,2.63-3.04,5.26-6.08,7.89-9.12.58-.67,3.61-3.25,3.61-4.18,0-.82-2.68-3.1-3.19-3.69-2.58-2.98-5.16-5.97-7.74-8.95-3.83-4.43-7.66-8.87-11.5-13.3"/>
      <path id="path25" class="cls-4" d="M104.1,128.56c-3.23,3.73-6.46,7.47-9.68,11.2-2.27,2.63-4.54,5.25-6.81,7.88-.55.64-3.44,3.09-3.44,3.98,0,.77,2.53,2.93,3.01,3.48,2.22,2.57,4.45,5.15,6.67,7.72,3.42,3.95,6.83,7.9,10.25,11.85,3.23-3.73,6.46-7.47,9.68-11.2,2.27-2.63,4.54-5.25,6.81-7.88.55-.64,3.44-3.09,3.44-3.98,0-.77-2.53-2.93-3.01-3.48-2.22-2.57-4.45-5.15-6.68-7.72-3.42-3.95-6.83-7.9-10.25-11.85"/>
      <path id="path27" class="cls-4" d="M89.15,134.33h29.77c.26,0,.13,28.29.13,30.99,0,.55.39,3.17,0,3.6-.44.48-4.06,0-4.67,0h-25.1c-.29,0-.13-2.74-.13-3.06v-31.53"/>
      <path id="path29" class="cls-7" d="M104.1,134.33c-2.49,2.88-4.98,5.76-7.47,8.65-1.71,1.98-3.43,3.96-5.14,5.95-.37.43-2.34,2.1-2.34,2.7s1.96,2.27,2.34,2.7c1.71,1.98,3.43,3.96,5.14,5.94,2.49,2.88,4.98,5.76,7.47,8.65,2.49-2.88,4.98-5.76,7.47-8.65,1.71-1.98,3.43-3.96,5.14-5.94.37-.43,2.34-2.1,2.34-2.7s-1.96-2.27-2.34-2.7c-1.71-1.98-3.42-3.96-5.14-5.95-2.49-2.88-4.98-5.76-7.47-8.65"/>
      <path id="path31" class="cls-4" d="M141.47,117.04h-4.98c1.66,1.92,3.32,3.84,4.98,5.76v-5.76"/>
      <path id="path33" class="cls-4" d="M141.47,125.68c-1.66-1.92-3.32-3.84-4.98-5.76v5.6c0,.34,4.34.16,4.98.16"/>
      <path id="path35" class="cls-4" d="M66.73,117.04h4.98c-1.66,1.92-3.32,3.84-4.98,5.76v-5.76"/>
      <path id="path37" class="cls-4" d="M66.73,125.68c1.66-1.92,3.32-3.84,4.98-5.76v5.6c0,.34-4.34.16-4.98.16"/>
      <path id="path39" class="cls-4" d="M71.71,177.56h-4.98c1.66,1.92,3.32,3.84,4.98,5.76v-5.76"/>
      <path id="path41" class="cls-4" d="M71.71,186.21c-1.66-1.92-3.32-3.84-4.98-5.76v5.6c0,.34,4.34.16,4.98.16"/>
      <path id="path43" class="cls-4" d="M136.49,177.56h4.98c-1.66,1.92-3.32,3.84-4.98,5.76v-5.76"/>
      <path id="path45" class="cls-4" d="M136.49,186.21c1.66-1.92,3.32-3.84,4.98-5.76v5.6c0,.34-4.34.16-4.98.16"/>
      <path id="path47" class="cls-4" d="M71.71,157.39h-4.98c1.66,1.92,3.32,3.84,4.98,5.76v-5.76"/>
      <path id="path49" class="cls-4" d="M71.71,166.03c-1.66-1.92-3.32-3.84-4.98-5.76v5.6c0,.34,4.34.16,4.98.16"/>
      <path id="path51" class="cls-4" d="M66.73,137.21h4.98c-1.66,1.92-3.32,3.84-4.98,5.76v-5.76"/>
      <path id="path53" class="cls-4" d="M66.73,145.86c1.66-1.92,3.32-3.84,4.98-5.76v5.6c0,.34-4.34.16-4.98.16"/>
      <path id="path55" class="cls-4" d="M141.47,137.21h-4.98c1.66,1.92,3.32,3.84,4.98,5.76v-5.76"/>
      <path id="path57" class="cls-4" d="M141.47,145.86c-1.66-1.92-3.32-3.84-4.98-5.76v5.6c0,.34,4.34.16,4.98.16"/>
      <path id="path59" class="cls-4" d="M136.49,157.39h4.98c-1.66,1.92-3.32,3.84-4.98,5.76v-5.76"/>
      <path id="path61" class="cls-4" d="M136.49,166.03c1.66-1.92,3.32-3.84,4.98-5.76v5.6c0,.34-4.34.16-4.98.16"/>
      <path id="path63" class="cls-7" d="M86.72,30.93c-1.02-2.53-2.1-5.1-2.79-7.74-.63-2.38-1.13-8.19,2.03-9.33,3.03-1.1,4.13,4.16,4.09,6.22-.06,3.1-1.53,6.27-2.64,9.12-.22.58-.45,1.16-.69,1.74"/>
      <path id="path65" class="cls-7" d="M86.71,30.99c-2.5-1.06-5.29-2.09-7.51-3.7-1.97-1.43-5.1-5.65-3.27-8.23,1.84-2.61,5.69.38,6.94,2.14,1.78,2.53,2.62,5.98,3.56,8.9.1.3.19.6.28.89"/>
      <path id="path67" class="cls-7" d="M86.72,30.99c2.5-1.06,5.29-2.09,7.51-3.7,1.97-1.42,5.1-5.65,3.27-8.23-1.84-2.61-5.7.38-6.94,2.14-1.82,2.58-2.67,6.12-3.62,9.09-.07.23-.15.47-.22.7"/>
      <path id="path69" class="cls-7" d="M80.3,31.33c-2.03-.6-4.54-.4-5.83,1.48-.69,1-.85,4.89,1.35,4.14.38-.13.7-1.84,1.16-2.23.89-.75,2.56-.73,3.64-.81,1.45-.12,2.96.04,4.39-.16,0,0,0-.02,0-.02-1.35-1.05-3.08-1.88-4.72-2.39"/>
      <path id="path71" class="cls-7" d="M93.02,31.33c2.03-.6,4.54-.4,5.83,1.48.69,1,.85,4.89-1.35,4.14-.38-.13-.7-1.84-1.16-2.23-.89-.75-2.56-.73-3.64-.81-1.45-.12-2.96.04-4.39-.16,0,0,0-.02,0-.02,1.35-1.05,3.08-1.88,4.72-2.39"/>
      <path id="path73" class="cls-7" d="M85,36.93c.3,2.54,4.69,1.3,2.59-2.19-1.47-2.46-2.32-.16-2.59,2.19"/>
      <path id="path75" class="cls-7" d="M121.6,30.93c-1.02-2.53-2.1-5.1-2.79-7.74-.63-2.38-1.13-8.19,2.03-9.33,3.03-1.1,4.13,4.16,4.09,6.22-.06,3.1-1.53,6.27-2.63,9.12-.23.58-.45,1.16-.69,1.74"/>
      <path id="path77" class="cls-7" d="M121.59,30.99c-2.5-1.06-5.29-2.09-7.51-3.7-1.97-1.43-5.1-5.65-3.27-8.23,1.85-2.61,5.69.38,6.94,2.14,1.78,2.53,2.62,5.98,3.56,8.9.1.3.19.6.28.89"/>
      <path id="path79" class="cls-7" d="M121.6,30.99c2.5-1.06,5.29-2.09,7.51-3.7,1.97-1.43,5.1-5.65,3.27-8.23-1.84-2.61-5.69.38-6.94,2.14-1.82,2.58-2.67,6.12-3.62,9.09-.07.23-.15.47-.22.7"/>
      <path id="path81" class="cls-7" d="M115.18,31.33c-2.03-.6-4.53-.4-5.83,1.48-.69,1-.85,4.89,1.35,4.14.38-.13.7-1.84,1.16-2.23.89-.75,2.56-.73,3.64-.81,1.45-.12,2.96.04,4.39-.16,0,0,0-.02,0-.02-1.36-1.05-3.08-1.88-4.72-2.39"/>
      <path id="path83" class="cls-7" d="M127.9,31.33c2.03-.6,4.54-.4,5.83,1.48.69,1,.85,4.89-1.35,4.14-.38-.13-.7-1.84-1.16-2.23-.89-.75-2.56-.73-3.64-.81-1.45-.12-2.96.04-4.39-.16,0,0,0-.02,0-.02,1.36-1.05,3.08-1.88,4.72-2.39"/>
      <path id="path85" class="cls-7" d="M119.88,36.93c.3,2.54,4.69,1.3,2.59-2.19-1.47-2.46-2.32-.16-2.59,2.19"/>
      <path id="path87" class="cls-7" d="M156.48,30.93c-1.02-2.53-2.1-5.1-2.79-7.74-.63-2.38-1.13-8.19,2.03-9.33,3.03-1.1,4.13,4.16,4.09,6.22-.06,3.1-1.53,6.27-2.64,9.12-.22.58-.45,1.16-.69,1.74"/>
      <path id="path89" class="cls-7" d="M156.47,30.99c-2.5-1.06-5.29-2.09-7.51-3.7-1.97-1.43-5.1-5.65-3.27-8.23,1.84-2.61,5.69.38,6.94,2.14,1.82,2.58,2.67,6.12,3.62,9.09.08.23.15.47.22.7"/>
      <path id="path91" class="cls-7" d="M156.48,30.99c2.5-1.06,5.29-2.09,7.51-3.7,1.97-1.43,5.1-5.65,3.27-8.23-1.85-2.61-5.7.38-6.94,2.14-1.82,2.58-2.67,6.12-3.62,9.09-.07.23-.15.47-.22.7"/>
      <path id="path93" class="cls-7" d="M150.06,31.33c-2.03-.6-4.54-.4-5.83,1.48-.69,1-.85,4.89,1.35,4.14.38-.13.7-1.84,1.16-2.23.89-.75,2.56-.73,3.64-.81,1.46-.12,2.96.04,4.39-.16,0,0,0-.02,0-.02-1.36-1.05-3.08-1.88-4.72-2.39"/>
      <path id="path95" class="cls-7" d="M162.78,31.33c2.03-.6,4.54-.4,5.83,1.48.69,1,.85,4.89-1.35,4.14-.38-.13-.7-1.84-1.16-2.23-.89-.75-2.56-.73-3.64-.81-1.45-.12-2.96.04-4.39-.16,0,0,0-.02,0-.02,1.35-1.05,3.08-1.88,4.72-2.39"/>
      <path id="path97" class="cls-7" d="M154.76,36.93c.3,2.54,4.69,1.3,2.59-2.19-1.48-2.46-2.32-.16-2.59,2.19"/>
      <path id="path99" class="cls-7" d="M51.84,30.93c-1.02-2.53-2.1-5.1-2.79-7.74-.63-2.38-1.13-8.19,2.03-9.33,3.03-1.1,4.13,4.16,4.09,6.22-.06,3.1-1.53,6.27-2.64,9.12-.22.58-.45,1.16-.69,1.74"/>
      <path id="path101" class="cls-7" d="M51.83,30.99c-2.5-1.06-5.29-2.09-7.51-3.7-1.97-1.43-5.1-5.65-3.27-8.23,1.84-2.61,5.7.38,6.94,2.14,1.78,2.53,2.62,5.98,3.56,8.9.1.3.19.6.28.89"/>
      <path id="path103" class="cls-7" d="M51.84,30.99c2.5-1.06,5.29-2.09,7.51-3.7,1.97-1.43,5.1-5.65,3.27-8.23-1.85-2.61-5.69.38-6.94,2.14-1.78,2.53-2.62,5.98-3.56,8.9-.1.3-.19.6-.28.89"/>
      <path id="path105" class="cls-7" d="M45.42,31.33c-2.03-.6-4.54-.4-5.83,1.48-.69,1-.85,4.89,1.35,4.14.38-.13.7-1.84,1.16-2.23.89-.75,2.56-.73,3.64-.81,1.45-.12,2.96.04,4.39-.16,0,0,0-.02,0-.02-1.35-1.05-3.08-1.88-4.72-2.39"/>
      <path id="path107" class="cls-7" d="M58.14,31.33c2.03-.6,4.54-.4,5.83,1.48.69,1,.85,4.89-1.35,4.14-.38-.13-.7-1.84-1.16-2.23-.89-.75-2.56-.73-3.64-.81-1.45-.12-2.96.04-4.39-.16,0,0,0-.02,0-.02,1.35-1.05,3.08-1.88,4.72-2.39"/>
      <path id="path109" class="cls-7" d="M50.12,36.93c.3,2.54,4.69,1.3,2.59-2.19-1.47-2.46-2.32-.16-2.59,2.19"/>
      <path id="path111" class="cls-7" d="M86.41,270.87c-1.02,2.53-2.1,5.1-2.79,7.74-.63,2.38-1.13,8.19,2.03,9.33,3.03,1.1,4.13-4.16,4.09-6.22-.06-3.1-1.53-6.27-2.63-9.12-.23-.58-.45-1.16-.69-1.74"/>
      <path id="path113" class="cls-7" d="M86.4,270.82c-2.5,1.06-5.29,2.09-7.51,3.7-1.97,1.43-5.1,5.65-3.27,8.23,1.85,2.61,5.7-.38,6.94-2.14,1.78-2.53,2.62-5.98,3.56-8.9.1-.3.19-.6.28-.89"/>
      <path id="path115" class="cls-7" d="M86.4,270.82c2.5,1.06,5.29,2.09,7.51,3.7,1.97,1.43,5.1,5.65,3.27,8.23-1.84,2.61-5.69-.38-6.94-2.14-1.82-2.58-2.67-6.12-3.62-9.09-.07-.23-.15-.47-.22-.7"/>
      <path id="path117" class="cls-7" d="M79.99,270.47c-2.03.6-4.54.4-5.83-1.48-.69-1-.85-4.89,1.35-4.14.38.13.7,1.84,1.16,2.23.89.75,2.56.73,3.64.81,1.45.12,2.97-.04,4.39.16,0,0,0,.02,0,.02-1.35,1.05-3.08,1.88-4.72,2.39"/>
      <path id="path119" class="cls-7" d="M92.71,270.47c2.03.6,4.54.4,5.83-1.48.69-1,.85-4.89-1.35-4.14-.38.13-.7,1.84-1.16,2.23-.89.75-2.56.73-3.64.81-1.45.12-2.97-.04-4.39.16,0,0,0,.02,0,.02,1.35,1.05,3.08,1.88,4.72,2.39"/>
      <path id="path121" class="cls-7" d="M84.69,264.87c.3-2.54,4.69-1.31,2.59,2.19-1.47,2.46-2.32.16-2.59-2.19"/>
      <path id="path123" class="cls-7" d="M121.29,270.87c-1.02,2.53-2.1,5.1-2.79,7.74-.63,2.38-1.13,8.19,2.03,9.33,3.03,1.1,4.13-4.16,4.09-6.22-.06-3.1-1.53-6.27-2.63-9.12-.23-.58-.45-1.16-.69-1.74"/>
      <path id="path125" class="cls-7" d="M121.28,270.82c-2.5,1.06-5.29,2.09-7.51,3.7-1.97,1.43-5.1,5.65-3.27,8.23,1.85,2.61,5.69-.38,6.94-2.14,1.82-2.58,2.67-6.12,3.62-9.09.07-.23.15-.47.22-.7"/>
      <path id="path127" class="cls-7" d="M121.29,270.82c2.5,1.06,5.29,2.09,7.51,3.7,1.97,1.43,5.1,5.65,3.27,8.23-1.85,2.61-5.69-.38-6.94-2.14-1.82-2.58-2.67-6.12-3.62-9.09-.07-.23-.15-.47-.22-.7"/>
      <path id="path129" class="cls-7" d="M114.87,270.47c-2.03.6-4.53.4-5.83-1.48-.69-1-.85-4.89,1.35-4.14.38.13.7,1.84,1.16,2.23.89.75,2.56.73,3.64.81,1.45.12,2.97-.04,4.39.16,0,0,0,.02,0,.02-1.35,1.05-3.08,1.88-4.72,2.39"/>
      <path id="path131" class="cls-7" d="M127.59,270.47c2.03.6,4.53.4,5.83-1.48.69-1,.85-4.89-1.35-4.14-.38.13-.7,1.84-1.16,2.23-.89.75-2.56.73-3.64.81-1.45.12-2.96-.04-4.39.16,0,0,0,.02,0,.02,1.35,1.05,3.08,1.88,4.72,2.39"/>
      <path id="path133" class="cls-7" d="M119.57,264.87c.3-2.54,4.69-1.31,2.59,2.19-1.47,2.46-2.32.16-2.59-2.19"/>
      <path id="path135" class="cls-7" d="M156.17,270.87c-1.02,2.53-2.1,5.1-2.79,7.74-.63,2.38-1.13,8.19,2.03,9.33,3.03,1.1,4.13-4.16,4.09-6.22-.06-3.1-1.53-6.27-2.64-9.12-.22-.58-.45-1.16-.69-1.74"/>
      <path id="path137" class="cls-7" d="M156.16,270.82c-2.5,1.06-5.29,2.09-7.51,3.7-1.97,1.43-5.1,5.65-3.27,8.23,1.85,2.61,5.7-.38,6.94-2.14,1.78-2.53,2.62-5.98,3.56-8.9.09-.3.19-.6.28-.89"/>
      <path id="path139" class="cls-7" d="M156.16,270.82c2.5,1.06,5.29,2.09,7.51,3.7,1.97,1.43,5.1,5.65,3.27,8.23-1.84,2.61-5.69-.38-6.94-2.14-1.78-2.53-2.62-5.98-3.56-8.9-.09-.3-.19-.6-.28-.89"/>
      <path id="path141" class="cls-7" d="M149.75,270.47c-2.03.6-4.54.4-5.83-1.48-.69-1-.85-4.89,1.35-4.14.38.13.7,1.84,1.16,2.23.89.75,2.56.73,3.64.81,1.45.12,2.97-.04,4.39.16,0,0,0,.02,0,.02-1.36,1.05-3.08,1.88-4.72,2.39"/>
      <path id="path143" class="cls-7" d="M162.47,270.47c2.03.6,4.54.4,5.83-1.48.69-1,.85-4.89-1.35-4.14-.38.13-.7,1.84-1.16,2.23-.89.75-2.56.73-3.64.81-1.45.12-2.97-.04-4.39.16,0,0,0,.02,0,.02,1.35,1.05,3.08,1.88,4.72,2.39"/>
      <path id="path145" class="cls-7" d="M154.45,264.87c.3-2.54,4.69-1.31,2.59,2.19-1.48,2.46-2.32.16-2.59-2.19"/>
      <path id="path147" class="cls-7" d="M51.53,270.87c-1.02,2.53-2.1,5.1-2.79,7.74-.63,2.38-1.13,8.19,2.03,9.33,3.03,1.1,4.13-4.16,4.09-6.22-.06-3.1-1.53-6.27-2.64-9.12-.22-.58-.45-1.16-.69-1.74"/>
      <path id="path149" class="cls-7" d="M51.52,270.82c-2.51,1.06-5.29,2.09-7.51,3.7-1.97,1.43-5.1,5.65-3.27,8.23,1.85,2.61,5.7-.38,6.94-2.14,1.78-2.53,2.62-5.98,3.56-8.9.1-.3.19-.6.28-.89"/>
      <path id="path151" class="cls-7" d="M51.52,270.82c2.5,1.06,5.29,2.09,7.51,3.7,1.97,1.42,5.1,5.65,3.27,8.23-1.85,2.61-5.69-.38-6.94-2.14-1.82-2.58-2.67-6.12-3.62-9.09-.07-.23-.15-.47-.22-.7"/>
      <path id="path153" class="cls-7" d="M45.11,270.47c-2.03.6-4.54.4-5.83-1.48-.69-1-.85-4.89,1.35-4.14.38.13.7,1.84,1.16,2.23.89.75,2.56.73,3.64.81,1.45.12,2.97-.04,4.39.16,0,0,0,.02,0,.02-1.35,1.05-3.08,1.88-4.72,2.39"/>
      <path id="path155" class="cls-7" d="M57.83,270.47c2.03.6,4.54.4,5.83-1.48.69-1,.85-4.89-1.35-4.14-.38.13-.7,1.84-1.16,2.23-.89.75-2.56.73-3.64.81-1.45.12-2.97-.04-4.39.16,0,0,0,.02,0,.02,1.35,1.05,3.08,1.88,4.72,2.39"/>
      <path id="path157" class="cls-7" d="M49.81,264.87c.3-2.54,4.69-1.31,2.59,2.19-1.48,2.46-2.32.16-2.59-2.19"/>
      <path id="path159" class="cls-7" d="M182.35,272.59c2.37,1.27,4.94,2.84,7.57,3.52,2.39.62,6.92.02,7.35-3.15.42-3.06-3.89-4.43-6.22-4.16-2.9.34-5.94,2.3-8.48,3.66-.07.04-.14.08-.22.12"/>
      <path id="path161" class="cls-7" d="M182.31,272.61c1.02,3.24,4.19,15.63,9.89,12.71,2.78-1.43.54-6.14-.91-7.75-2.05-2.26-5.46-3.45-8.21-4.63-.26-.11-.52-.22-.77-.33"/>
      <path id="path163" class="cls-7" d="M182.3,272.6c1.02-3.25,4.19-15.64,9.9-12.71,2.78,1.43.54,6.13-.91,7.74-2.05,2.26-5.46,3.46-8.21,4.64-.26.11-.52.22-.77.33"/>
      <path id="path165" class="cls-7" d="M182,280.02c.46,2.09.56,5.22-1.28,6.74-1.2.99-4.29.67-3.58-1.56.13-.41,1.57-.84,1.93-1.35.74-1.05.63-3,.7-4.2.1-1.68-.06-3.42.14-5.08,0,0,.01,0,.02,0,.96,1.64,1.65,3.61,2.07,5.46"/>
      <path id="path167" class="cls-7" d="M182,265.3c.46-2.09.56-5.22-1.28-6.74-1.2-.99-4.29-.67-3.58,1.56.13.41,1.57.84,1.93,1.35.74,1.05.63,3,.7,4.21.1,1.68-.06,3.42.14,5.08,0,0,.01,0,.02,0,.96-1.63,1.65-3.61,2.07-5.46"/>
      <path id="path169" class="cls-7" d="M177.16,274.58c-2.28-.55-1.3-5.49,1.89-2.99,1.92,1.5.47,2.59-1.89,2.99"/>
      <path id="path171" class="cls-7" d="M182.35,232.24c2.37,1.28,4.94,2.84,7.57,3.53,2.39.62,6.92.02,7.35-3.15.41-3.05-3.89-4.43-6.22-4.16-2.9.33-5.94,2.29-8.48,3.66-.07.04-.15.08-.22.12"/>
      <path id="path173" class="cls-7" d="M182.3,232.26c1.03,3.25,4.19,15.63,9.9,12.71,2.78-1.43.54-6.14-.91-7.74-2.06-2.26-5.46-3.45-8.21-4.63-.26-.11-.52-.22-.77-.33"/>
      <path id="path175" class="cls-7" d="M182.31,232.25c1.02-3.25,4.19-15.63,9.89-12.71,2.78,1.43.54,6.14-.91,7.74-2.05,2.26-5.46,3.45-8.21,4.64-.26.11-.52.22-.77.33"/>
      <path id="path177" class="cls-7" d="M182,239.66c.46,2.09.56,5.22-1.28,6.74-1.19.99-4.29.68-3.58-1.56.13-.41,1.57-.84,1.93-1.34.74-1.05.63-3,.7-4.21.1-1.68-.06-3.42.14-5.08,0,0,.01,0,.02,0,.96,1.63,1.65,3.61,2.07,5.46"/>
      <path id="path179" class="cls-7" d="M182,224.95c.46-2.09.56-5.22-1.28-6.74-1.19-.99-4.29-.67-3.58,1.56.13.41,1.57.84,1.93,1.34.74,1.05.63,3,.7,4.21.1,1.68-.06,3.42.14,5.08,0,0,.01,0,.02,0,.96-1.64,1.65-3.61,2.07-5.46"/>
      <path id="path181" class="cls-7" d="M177.16,234.23c-2.28-.55-1.3-5.49,1.89-3,1.92,1.5.47,2.59-1.89,3"/>
      <path id="path183" class="cls-7" d="M182.35,191.89c2.37,1.28,4.94,2.85,7.57,3.53,2.39.62,6.91.02,7.35-3.15.42-3.06-3.89-4.43-6.22-4.17-2.9.34-5.94,2.3-8.48,3.67-.07.04-.14.08-.22.12"/>
      <path id="path185" class="cls-7" d="M182.3,191.91c1.03,3.25,4.19,15.64,9.9,12.71,2.78-1.43.54-6.14-.91-7.74-2.06-2.26-5.46-3.45-8.21-4.64-.26-.11-.52-.22-.77-.33"/>
      <path id="path187" class="cls-7" d="M182.3,191.9c1.03-3.25,4.19-15.63,9.9-12.71,2.78,1.43.54,6.14-.91,7.74-2.06,2.26-5.46,3.45-8.21,4.63-.26.11-.52.22-.77.33"/>
      <path id="path189" class="cls-7" d="M182,199.32c.46,2.09.56,5.22-1.28,6.74-1.2.99-4.29.67-3.58-1.56.13-.41,1.57-.84,1.93-1.35.74-1.05.63-3,.7-4.21.1-1.68-.08-3.45.15-5.09.98,1.59,1.66,3.62,2.08,5.46"/>
      <path id="path191" class="cls-7" d="M182,184.6c.46-2.09.56-5.22-1.28-6.74-1.2-.99-4.29-.67-3.58,1.56.13.41,1.57.84,1.93,1.34.74,1.05.63,3,.7,4.21.1,1.68-.08,3.45.15,5.09.98-1.59,1.66-3.62,2.08-5.46"/>
      <path id="path193" class="cls-7" d="M177.16,193.88c-2.28-.55-1.3-5.48,1.89-3,1.93,1.5.47,2.59-1.89,3"/>
      <path id="path195" class="cls-7" d="M182.35,111.18c2.37,1.28,4.94,2.85,7.57,3.53,2.39.62,6.92.02,7.35-3.15.42-3.06-3.89-4.43-6.22-4.16-2.9.34-5.94,2.3-8.48,3.66-.07.04-.14.08-.22.12"/>
      <path id="path197" class="cls-7" d="M182.31,111.2c1.02,3.25,4.19,15.63,9.89,12.71,2.78-1.43.54-6.14-.91-7.75-2.05-2.26-5.46-3.45-8.21-4.63-.26-.11-.52-.22-.77-.33"/>
      <path id="path199" class="cls-7" d="M182.3,111.19c1.02-3.25,4.19-15.64,9.9-12.71,2.78,1.43.54,6.13-.91,7.74-2.05,2.26-5.46,3.46-8.21,4.64-.26.11-.52.22-.77.33"/>
      <path id="path201" class="cls-7" d="M182,118.62c.46,2.09.56,5.22-1.28,6.74-1.27,1.05-4.25.61-3.55-1.62.11-.33,1.64-.94,1.98-1.46.69-1.09.57-3.05.64-4.28.08-1.59-.1-3.31.14-4.86.96,1.64,1.65,3.61,2.07,5.46"/>
      <path id="path203" class="cls-7" d="M182,103.9c.46-2.09.56-5.22-1.28-6.74-1.19-.99-4.29-.67-3.58,1.56.13.41,1.57.84,1.93,1.35.74,1.05.63,3,.7,4.21.1,1.68-.06,3.42.14,5.08,0,0,.01,0,.02,0,.96-1.63,1.65-3.61,2.07-5.46"/>
      <path id="path205" class="cls-7" d="M177.16,113.18c-2.28-.55-1.3-5.49,1.89-2.99,1.92,1.5.47,2.59-1.89,2.99"/>
      <path id="path207" class="cls-7" d="M182.35,70.83c2.37,1.28,4.94,2.84,7.57,3.53,2.39.62,6.92.02,7.35-3.15.41-3.06-3.89-4.43-6.22-4.16-2.9.33-5.94,2.3-8.48,3.66-.07.04-.15.08-.22.12"/>
      <path id="path209" class="cls-7" d="M182.3,70.85c1.03,3.25,4.19,15.64,9.9,12.71,2.78-1.43.54-6.14-.91-7.74-2.06-2.26-5.46-3.45-8.21-4.64-.26-.11-.52-.22-.77-.33"/>
      <path id="path211" class="cls-7" d="M182.31,70.84c1.02-3.25,4.19-15.63,9.89-12.71,2.78,1.43.54,6.14-.91,7.74-2.05,2.26-5.46,3.45-8.21,4.64-.26.11-.52.22-.77.33"/>
      <path id="path213" class="cls-7" d="M182,78.26c.46,2.09.56,5.22-1.28,6.74-1.19.99-4.29.68-3.58-1.56.13-.41,1.57-.84,1.93-1.35.74-1.05.63-3,.7-4.21.1-1.68-.06-3.42.14-5.08,0,0,.01,0,.02,0,.96,1.63,1.65,3.61,2.07,5.46"/>
      <path id="path215" class="cls-7" d="M182,63.55c.46-2.09.56-5.22-1.28-6.74-1.19-.99-4.29-.67-3.58,1.56.13.41,1.57.84,1.93,1.35.74,1.05.63,3,.7,4.21.1,1.68-.06,3.42.14,5.08,0,0,.01,0,.02,0,.96-1.64,1.65-3.61,2.07-5.46"/>
      <path id="path217" class="cls-7" d="M177.16,72.83c-2.28-.55-1.3-5.49,1.89-3,1.92,1.5.47,2.59-1.89,3"/>
      <path id="path219" class="cls-7" d="M182.35,30.48c2.37,1.28,4.94,2.85,7.57,3.53,2.39.62,6.91.02,7.35-3.15.42-3.06-3.89-4.44-6.22-4.17-2.9.34-5.94,2.3-8.48,3.67-.07.04-.14.08-.22.12"/>
      <path id="path221" class="cls-7" d="M182.3,30.5c1.03,3.25,4.19,15.64,9.9,12.71,2.78-1.43.54-6.14-.91-7.74-2.06-2.26-5.46-3.45-8.21-4.64-.26-.11-.52-.22-.77-.33"/>
      <path id="path223" class="cls-7" d="M182.3,30.49c1.03-3.25,4.19-15.64,9.9-12.71,2.78,1.43.54,6.14-.91,7.74-2.06,2.26-5.46,3.45-8.21,4.64-.26.11-.52.22-.77.33"/>
      <path id="path225" class="cls-7" d="M182,37.91c.46,2.09.56,5.22-1.28,6.74-1.2.99-4.29.67-3.58-1.56.13-.41,1.57-.84,1.93-1.34.74-1.05.63-3,.7-4.21.1-1.68-.08-3.45.15-5.09.98,1.59,1.66,3.62,2.08,5.46"/>
      <path id="path227" class="cls-7" d="M182,23.2c.46-2.09.56-5.22-1.28-6.74-1.2-.99-4.29-.67-3.58,1.56.13.41,1.57.84,1.93,1.34.74,1.05.63,3,.7,4.21.1,1.68-.08,3.45.15,5.09.98-1.59,1.66-3.62,2.08-5.46"/>
      <path id="path229" class="cls-7" d="M177.16,32.48c-2.28-.55-1.3-5.48,1.89-3,1.93,1.5.47,2.59-1.89,3"/>
      <path id="path231" class="cls-7" d="M182.35,151.54c2.37,1.28,4.94,2.85,7.57,3.53,2.39.62,6.91.02,7.35-3.15.42-3.06-3.89-4.43-6.22-4.16-2.9.34-5.94,2.3-8.48,3.66-.07.04-.14.08-.22.12"/>
      <path id="path233" class="cls-7" d="M182.3,151.55c1.03,3.25,4.19,15.64,9.9,12.71,2.78-1.43.54-6.14-.91-7.74-2.06-2.26-5.46-3.45-8.21-4.63-.26-.11-.52-.22-.77-.33"/>
      <path id="path235" class="cls-7" d="M182.3,151.55c1.03-3.25,4.19-15.64,9.9-12.71,2.78,1.43.54,6.14-.91,7.74-2.06,2.26-5.46,3.45-8.21,4.64-.26.11-.52.22-.77.33"/>
      <path id="path237" class="cls-7" d="M182,158.97c.46,2.09.56,5.22-1.28,6.74-1.2,1-4.29.67-3.58-1.56.13-.41,1.57-.85,1.93-1.35.74-1.05.63-3,.7-4.21.1-1.68-.06-3.41.14-5.08,0,0,.01,0,.02,0,.96,1.64,1.65,3.61,2.07,5.46"/>
      <path id="path239" class="cls-7" d="M182,144.25c.46-2.09.56-5.22-1.28-6.74-1.2-.99-4.29-.67-3.58,1.56.13.41,1.57.84,1.93,1.35.74,1.05.63,3,.7,4.21.1,1.68-.08,3.45.15,5.09.98-1.59,1.66-3.62,2.08-5.46"/>
      <path id="path241" class="cls-7" d="M177.16,153.52c-2.27-.54-1.3-5.49,1.89-2.99,1.92,1.5.47,2.59-1.89,2.99"/>
      <path id="path243" class="cls-7" d="M25.85,272.59c-2.37,1.27-4.94,2.84-7.57,3.52-2.39.62-6.91.02-7.35-3.15-.42-3.06,3.89-4.43,6.22-4.16,2.9.34,5.94,2.3,8.48,3.66.07.04.15.08.22.12"/>
      <path id="path245" class="cls-7" d="M25.9,272.61c-1.02,3.24-4.19,15.63-9.89,12.71-2.78-1.43-.54-6.14.91-7.75,2.05-2.26,5.46-3.45,8.21-4.63.26-.11.52-.22.77-.33"/>
      <path id="path247" class="cls-7" d="M25.9,272.6c-1.02-3.25-4.19-15.64-9.9-12.71-2.78,1.43-.54,6.13.91,7.74,2.06,2.26,5.46,3.46,8.21,4.64.26.11.52.22.77.33"/>
      <path id="path249" class="cls-7" d="M26.2,280.02c-.46,2.09-.56,5.22,1.28,6.74,1.2.99,4.29.67,3.57-1.56-.13-.41-1.57-.84-1.93-1.35-.74-1.05-.63-3-.7-4.2-.1-1.68.06-3.42-.14-5.08,0,0-.01,0-.02,0-.96,1.64-1.65,3.61-2.07,5.46"/>
      <path id="path251" class="cls-7" d="M26.2,265.3c-.46-2.09-.56-5.22,1.28-6.74,1.2-.99,4.29-.67,3.57,1.56-.13.41-1.57.84-1.93,1.35-.74,1.05-.63,3-.7,4.21-.1,1.68.06,3.42-.14,5.08,0,0-.01,0-.02,0-.96-1.63-1.65-3.61-2.07-5.46"/>
      <path id="path253" class="cls-7" d="M31.04,274.58c2.28-.55,1.3-5.49-1.89-2.99-1.92,1.5-.47,2.59,1.89,2.99"/>
      <path id="path255" class="cls-7" d="M25.85,232.24c-2.37,1.28-4.94,2.84-7.57,3.53-2.39.62-6.92.02-7.35-3.15-.41-3.05,3.89-4.43,6.22-4.16,2.9.33,5.94,2.3,8.48,3.66.07.04.15.08.22.12"/>
      <path id="path257" class="cls-7" d="M25.9,232.26c-1.03,3.25-4.19,15.63-9.9,12.71-2.78-1.43-.54-6.14.91-7.74,2.06-2.26,5.46-3.45,8.21-4.63.26-.11.52-.22.77-.33"/>
      <path id="path259" class="cls-7" d="M25.9,232.25c-1.02-3.25-4.19-15.63-9.89-12.71-2.78,1.43-.54,6.14.91,7.74,2.05,2.26,5.46,3.45,8.21,4.64.26.11.52.22.77.33"/>
      <path id="path261" class="cls-7" d="M26.2,239.66c-.46,2.09-.56,5.22,1.28,6.74,1.19.99,4.29.68,3.57-1.56-.13-.41-1.57-.84-1.93-1.34-.74-1.05-.63-3-.7-4.21-.1-1.68.06-3.42-.14-5.08,0,0-.01,0-.02,0-.96,1.63-1.65,3.61-2.07,5.46"/>
      <path id="path263" class="cls-7" d="M26.2,224.95c-.46-2.09-.56-5.22,1.28-6.74,1.19-.99,4.29-.67,3.57,1.56-.13.41-1.57.84-1.93,1.34-.74,1.05-.63,3-.7,4.21-.1,1.68.06,3.42-.14,5.08,0,0-.01,0-.02,0-.96-1.64-1.65-3.61-2.07-5.46"/>
      <path id="path265" class="cls-7" d="M31.04,234.23c2.28-.55,1.3-5.49-1.89-3-1.93,1.5-.47,2.59,1.89,3"/>
      <path id="path267" class="cls-7" d="M25.85,191.89c-2.37,1.28-4.95,2.85-7.57,3.53-2.39.62-6.91.02-7.35-3.15-.42-3.06,3.89-4.43,6.22-4.17,2.9.34,5.94,2.3,8.48,3.67.07.04.15.08.22.12"/>
      <path id="path269" class="cls-7" d="M25.9,191.91c-1.03,3.25-4.19,15.63-9.9,12.71-2.78-1.42-.54-6.14.91-7.74,2.06-2.26,5.46-3.45,8.21-4.64.26-.11.52-.22.77-.33"/>
      <path id="path271" class="cls-7" d="M25.9,191.9c-1.03-3.25-4.19-15.63-9.9-12.71-2.78,1.43-.54,6.14.91,7.74,2.06,2.26,5.46,3.45,8.21,4.63.26.11.52.22.77.33"/>
      <path id="path273" class="cls-7" d="M26.2,199.32c-.46,2.09-.56,5.22,1.28,6.74,1.2.99,4.29.67,3.57-1.56-.13-.41-1.57-.84-1.93-1.35-.74-1.05-.63-3-.7-4.21-.1-1.68.08-3.45-.15-5.09-.98,1.59-1.66,3.62-2.08,5.46"/>
      <path id="path275" class="cls-7" d="M26.2,184.6c-.46-2.09-.56-5.22,1.28-6.74,1.2-.99,4.29-.67,3.57,1.56-.13.41-1.57.84-1.93,1.34-.74,1.05-.63,3-.7,4.21-.1,1.68.08,3.45-.15,5.09-.98-1.59-1.66-3.62-2.08-5.46"/>
      <path id="path277" class="cls-7" d="M31.04,193.88c2.28-.55,1.3-5.48-1.89-3-1.93,1.5-.47,2.59,1.89,3"/>
      <path id="path279" class="cls-7" d="M25.85,111.18c-2.37,1.28-4.94,2.85-7.57,3.53-2.39.62-6.91.02-7.35-3.15-.42-3.06,3.89-4.43,6.22-4.16,2.9.34,5.94,2.3,8.48,3.66.07.04.15.08.22.12"/>
      <path id="path281" class="cls-7" d="M25.9,111.2c-1.02,3.25-4.19,15.63-9.89,12.71-2.78-1.43-.54-6.14.91-7.75,2.05-2.26,5.46-3.45,8.21-4.63.26-.11.52-.22.77-.33"/>
      <path id="path283" class="cls-7" d="M25.9,111.19c-1.02-3.25-4.19-15.64-9.9-12.71-2.78,1.43-.55,6.13.91,7.74,2.06,2.26,5.46,3.46,8.21,4.64.26.11.52.22.77.33"/>
      <path id="path285" class="cls-7" d="M26.2,118.62c-.46,2.09-.56,5.22,1.28,6.74,1.27,1.05,4.25.61,3.55-1.62-.11-.33-1.65-.94-1.98-1.46-.69-1.09-.57-3.05-.64-4.28-.08-1.59.1-3.31-.15-4.86-.96,1.64-1.65,3.61-2.07,5.46"/>
      <path id="path287" class="cls-7" d="M26.2,103.9c-.46-2.09-.56-5.22,1.28-6.74,1.2-.99,4.29-.67,3.57,1.56-.13.41-1.57.84-1.93,1.35-.74,1.05-.63,3-.7,4.21-.1,1.68.06,3.42-.14,5.08,0,0-.01,0-.02,0-.96-1.63-1.65-3.61-2.07-5.46"/>
      <path id="path289" class="cls-7" d="M31.04,113.18c2.28-.55,1.3-5.49-1.89-2.99-1.92,1.5-.47,2.59,1.89,2.99"/>
      <path id="path291" class="cls-7" d="M25.85,70.83c-2.37,1.28-4.94,2.84-7.57,3.53-2.39.62-6.92.02-7.35-3.15-.41-3.06,3.89-4.43,6.22-4.16,2.9.33,5.94,2.3,8.48,3.66.07.04.15.08.22.12"/>
      <path id="path293" class="cls-7" d="M25.9,70.85c-1.03,3.25-4.19,15.63-9.9,12.71-2.78-1.42-.54-6.14.91-7.74,2.06-2.26,5.46-3.45,8.21-4.64.26-.11.52-.22.77-.33"/>
      <path id="path295" class="cls-7" d="M25.9,70.84c-1.02-3.25-4.19-15.63-9.89-12.71-2.78,1.42-.54,6.14.91,7.74,2.05,2.26,5.46,3.45,8.21,4.64.26.11.52.22.77.33"/>
      <path id="path297" class="cls-7" d="M26.2,78.26c-.46,2.09-.56,5.22,1.28,6.74,1.19.99,4.29.68,3.57-1.56-.13-.41-1.57-.84-1.93-1.35-.74-1.05-.63-3-.7-4.21-.1-1.68.06-3.42-.14-5.08,0,0-.01,0-.02,0-.96,1.63-1.65,3.61-2.07,5.46"/>
      <path id="path299" class="cls-7" d="M26.2,63.55c-.46-2.09-.56-5.22,1.28-6.74,1.19-.99,4.29-.67,3.57,1.56-.13.41-1.57.84-1.93,1.35-.74,1.05-.63,3-.7,4.21-.1,1.68.06,3.42-.14,5.08,0,0-.01,0-.02,0-.96-1.64-1.65-3.61-2.07-5.46"/>
      <path id="path301" class="cls-7" d="M31.04,72.83c2.28-.55,1.3-5.49-1.89-3-1.92,1.5-.47,2.59,1.89,3"/>
      <path id="path303" class="cls-7" d="M25.85,30.48c-2.37,1.28-4.95,2.85-7.57,3.53-2.39.62-6.91.02-7.35-3.15-.42-3.06,3.89-4.44,6.22-4.17,2.9.34,5.94,2.3,8.48,3.67.07.04.15.08.22.12"/>
      <path id="path305" class="cls-7" d="M25.9,30.5c-1.03,3.25-4.19,15.63-9.9,12.71-2.78-1.42-.54-6.14.91-7.74,2.06-2.26,5.46-3.45,8.21-4.64.26-.11.52-.22.77-.33"/>
      <path id="path307" class="cls-7" d="M25.9,30.49c-1.03-3.25-4.19-15.63-9.9-12.71-2.78,1.42-.54,6.14.91,7.74,2.06,2.26,5.46,3.45,8.21,4.64.26.11.52.22.77.33"/>
      <path id="path309" class="cls-7" d="M26.2,37.91c-.46,2.09-.56,5.22,1.28,6.74,1.2.99,4.29.67,3.57-1.56-.13-.41-1.57-.84-1.93-1.34-.74-1.05-.63-3-.7-4.21-.1-1.67.08-3.45-.15-5.09-.98,1.59-1.66,3.62-2.08,5.46"/>
      <path id="path311" class="cls-7" d="M26.2,23.2c-.46-2.09-.56-5.22,1.28-6.74,1.2-.99,4.29-.67,3.57,1.56-.13.41-1.57.84-1.93,1.34-.74,1.05-.63,3-.7,4.21-.1,1.67.08,3.45-.15,5.09-.98-1.59-1.66-3.62-2.08-5.46"/>
      <path id="path313" class="cls-7" d="M31.04,32.48c2.28-.55,1.3-5.48-1.89-3-1.93,1.5-.47,2.59,1.89,3"/>
      <path id="path315" class="cls-7" d="M25.85,151.54c-2.37,1.28-4.95,2.85-7.57,3.53-2.39.62-6.91.02-7.35-3.15-.42-3.06,3.89-4.43,6.22-4.16,2.9.34,5.94,2.3,8.48,3.66.07.04.15.08.22.12"/>
      <path id="path317" class="cls-7" d="M25.9,151.55c-1.03,3.25-4.19,15.63-9.9,12.71-2.78-1.43-.54-6.14.91-7.74,2.06-2.26,5.46-3.45,8.21-4.63.26-.11.52-.22.77-.33"/>
      <path id="path319" class="cls-7" d="M25.9,151.55c-1.03-3.25-4.19-15.63-9.9-12.71-2.78,1.42-.54,6.14.91,7.74,2.06,2.26,5.46,3.45,8.21,4.64.26.11.52.22.77.33"/>
      <path id="path321" class="cls-7" d="M26.2,158.97c-.46,2.09-.56,5.22,1.28,6.74,1.2,1,4.29.67,3.57-1.56-.13-.41-1.57-.85-1.93-1.35-.74-1.05-.63-3-.7-4.21-.1-1.68.06-3.41-.14-5.08,0,0-.01,0-.02,0-.96,1.64-1.65,3.61-2.07,5.46"/>
      <path id="path323" class="cls-7" d="M26.2,144.25c-.46-2.09-.56-5.22,1.28-6.74,1.2-.99,4.29-.67,3.57,1.56-.13.41-1.57.84-1.93,1.35-.74,1.05-.63,3-.7,4.21-.1,1.67.08,3.45-.15,5.09-.98-1.59-1.66-3.62-2.08-5.46"/>
      <path id="path325" class="cls-7" d="M31.04,153.52c2.27-.54,1.3-5.49-1.89-2.99-1.92,1.5-.47,2.59,1.89,2.99"/>
      <path id="path327" class="cls-1" d="M91.01,182.97h.03"/>
      <path id="path329" class="cls-3" d="M94.14,140.09c2.05,0,19.93-.17,19.93.17v19.29c0,.54.39,3.19,0,3.6-1.27,1.37-19.93-.8-19.93-.17v-22.89"/>
      <path id="path331" class="cls-6" d="M95.38,144.42c.83-.96,1.66-1.92,2.49-2.88.42,1.44.83,2.88,1.25,4.32-1.25-.48-2.49-.96-3.74-1.44"/>
      <path id="path333" class="cls-6" d="M110.33,141.53c.83.96,1.66,1.92,2.49,2.88-1.24.48-2.49.96-3.74,1.44.42-1.44.83-2.88,1.25-4.32"/>
      <path id="path335" class="cls-6" d="M110.41,161.63c.83-.96,1.66-1.92,2.49-2.88-1.25-.48-2.49-.96-3.74-1.44.41,1.44.83,2.88,1.24,4.32"/>
      <path id="path337" class="cls-6" d="M97.87,161.71c-.83-.96-1.66-1.92-2.49-2.88,1.25-.48,2.49-.96,3.74-1.44-.42,1.44-.83,2.88-1.25,4.32"/>
      <path id="path339" class="cls-6" d="M104.1,140.09c-.82,2.85-1.64,5.7-2.46,8.55-.31,1.06-6.31,2.52-7.5,2.98,1.19.46,7.2,1.92,7.5,2.98.82,2.85,1.64,5.7,2.46,8.55.82-2.85,1.64-5.7,2.46-8.55.31-1.06,6.31-2.52,7.5-2.98-1.19-.46-7.2-1.92-7.5-2.98-.82-2.85-1.64-5.7-2.46-8.55"/>
      <path id="path341" class="cls-4" d="M165.14,144.42c-.41,1.88-.81,3.75-1.22,5.63-.14.65-4.25,1.35-5.01,1.58.76.22,4.87.92,5.01,1.58.41,1.88.81,3.75,1.22,5.63.4-1.88.81-3.75,1.22-5.63.14-.65,4.25-1.35,5.01-1.58-.76-.22-4.87-.92-5.01-1.58-.41-1.88-.81-3.75-1.22-5.63"/>
      <path id="path343" class="cls-4" d="M165.13,124.23c-.4,1.88-.81,3.75-1.22,5.63-.14.65-4.25,1.35-5.01,1.57.76.22,4.87.92,5.01,1.58.4,1.88.81,3.75,1.22,5.63.41-1.88.81-3.75,1.22-5.63.14-.65,4.25-1.35,5.01-1.58-.76-.22-4.87-.92-5.01-1.57-.41-1.88-.81-3.75-1.22-5.63"/>
      <path id="path345" class="cls-4" d="M165.16,164.58c-.41,1.88-.81,3.75-1.22,5.63-.14.65-4.25,1.35-5.01,1.58.76.22,4.87.92,5.01,1.58.4,1.88.81,3.75,1.22,5.63.41-1.88.81-3.75,1.22-5.63.14-.65,4.25-1.35,5.01-1.58-.76-.22-4.87-.92-5.01-1.58-.4-1.88-.81-3.75-1.22-5.63"/>
      <path id="path347" class="cls-4" d="M147.7,144.42c-.4,1.88-.81,3.75-1.22,5.63-.14.65-4.25,1.35-5.01,1.58.76.22,4.87.92,5.01,1.58.41,1.88.81,3.75,1.22,5.63.41-1.88.81-3.75,1.22-5.63.14-.65,4.25-1.35,5.01-1.58-.76-.22-4.87-.92-5.01-1.58-.41-1.88-.81-3.75-1.22-5.63"/>
      <path id="path349" class="cls-4" d="M147.69,124.23c-.4,1.88-.81,3.75-1.22,5.63-.14.65-4.25,1.35-5.01,1.57.76.22,4.87.92,5.01,1.58.41,1.88.81,3.75,1.22,5.63.41-1.88.81-3.75,1.22-5.63.14-.65,4.25-1.35,5.01-1.58-.76-.22-4.87-.92-5.01-1.57-.41-1.88-.81-3.75-1.22-5.63"/>
      <path id="path351" class="cls-4" d="M147.72,164.58c-.4,1.88-.81,3.75-1.22,5.63-.14.65-4.25,1.35-5.01,1.58.76.22,4.87.92,5.01,1.58.41,1.88.81,3.75,1.22,5.63.41-1.88.81-3.75,1.22-5.63.14-.65,4.25-1.35,5.01-1.58-.76-.22-4.87-.92-5.01-1.58-.41-1.88-.81-3.75-1.22-5.63"/>
      <path id="path353" class="cls-4" d="M112.82,203.5c-.4,1.88-.81,3.75-1.22,5.63-.14.65-4.25,1.35-5.01,1.57.76.22,4.87.92,5.01,1.58.41,1.88.81,3.75,1.22,5.63.41-1.88.81-3.75,1.22-5.63.14-.65,4.25-1.36,5.01-1.58-.76-.22-4.87-.92-5.01-1.57-.41-1.88-.81-3.75-1.22-5.63"/>
      <path id="path355" class="cls-4" d="M95.38,203.5c-.41,1.88-.81,3.75-1.22,5.63-.14.65-4.25,1.35-5.01,1.57.76.22,4.87.92,5.01,1.58.41,1.88.81,3.75,1.22,5.63.41-1.88.81-3.75,1.22-5.63.14-.65,4.25-1.36,5.01-1.58-.76-.22-4.87-.92-5.01-1.57-.41-1.88-.81-3.75-1.22-5.63"/>
      <path id="path357" class="cls-4" d="M130.25,203.47c-.41,1.88-.81,3.75-1.22,5.63-.14.65-4.25,1.35-5.01,1.58.76.22,4.87.92,5.01,1.58.4,1.88.81,3.75,1.22,5.63.41-1.88.81-3.75,1.22-5.63.14-.65,4.25-1.35,5.01-1.58-.76-.22-4.87-.92-5.01-1.58-.4-1.88-.81-3.75-1.22-5.63"/>
      <path id="path359" class="cls-4" d="M77.99,203.52l-1.22,5.63c-.14.65-4.25,1.35-5.01,1.58.76.22,4.87.92,5.01,1.58l1.22,5.63c.41-1.88.81-3.75,1.22-5.63.14-.65,4.25-1.35,5.01-1.58-.76-.22-4.87-.92-5.01-1.58-.41-1.88-.81-3.75-1.22-5.63"/>
      <path id="path361" class="cls-4" d="M165.11,203.5c-.41,1.88-.81,3.75-1.22,5.63-.14.65-4.25,1.35-5.01,1.58.76.22,4.87.92,5.01,1.58.4,1.88.81,3.75,1.22,5.63.41-1.88.81-3.75,1.22-5.63.14-.65,4.25-1.36,5.01-1.58-.76-.22-4.87-.92-5.01-1.58-.41-1.88-.81-3.75-1.22-5.63"/>
      <path id="path363" class="cls-4" d="M147.66,203.5c-.4,1.88-.81,3.75-1.22,5.63-.14.65-4.25,1.35-5.01,1.58.76.22,4.87.92,5.01,1.58.4,1.88.81,3.75,1.22,5.63.41-1.88.81-3.75,1.22-5.63.14-.65,4.25-1.36,5.01-1.58-.76-.22-4.87-.92-5.01-1.58-.41-1.88-.81-3.75-1.22-5.63"/>
      <path id="path365" class="cls-4" d="M112.82,223.68c-.4,1.88-.81,3.75-1.22,5.63-.14.65-4.25,1.35-5.01,1.58.76.22,4.87.92,5.01,1.58.41,1.88.81,3.75,1.22,5.63l1.22-5.63c.14-.65,4.25-1.35,5.01-1.58-.76-.22-4.87-.92-5.01-1.58l-1.22-5.63"/>
      <path id="path367" class="cls-4" d="M95.38,223.68l-1.22,5.63c-.14.65-4.25,1.35-5.01,1.58.76.22,4.87.92,5.01,1.58l1.22,5.63c.41-1.88.81-3.75,1.22-5.63.14-.65,4.25-1.35,5.01-1.58-.76-.22-4.87-.92-5.01-1.58-.41-1.88-.81-3.75-1.22-5.63"/>
      <path id="path369" class="cls-4" d="M130.25,223.64c-.41,1.88-.81,3.75-1.22,5.63-.14.65-4.25,1.35-5.01,1.58.76.22,4.87.92,5.01,1.58.4,1.88.81,3.75,1.22,5.63.41-1.88.81-3.75,1.22-5.63.14-.65,4.25-1.36,5.01-1.58-.76-.22-4.87-.92-5.01-1.58-.4-1.88-.81-3.75-1.22-5.63"/>
      <path id="path371" class="cls-4" d="M77.99,223.7l-1.22,5.63c-.14.65-4.25,1.35-5.01,1.58.76.22,4.87.92,5.01,1.58l1.22,5.63c.41-1.88.81-3.75,1.22-5.63.14-.65,4.25-1.35,5.01-1.58-.76-.22-4.87-.92-5.01-1.58-.41-1.88-.81-3.75-1.22-5.63"/>
      <path id="path373" class="cls-4" d="M165.11,223.67c-.41,1.88-.81,3.75-1.22,5.63-.14.65-4.25,1.35-5.01,1.58.76.22,4.87.92,5.01,1.58.4,1.88.81,3.75,1.22,5.63.41-1.88.81-3.75,1.22-5.63.14-.65,4.25-1.35,5.01-1.58-.76-.22-4.87-.92-5.01-1.58-.41-1.88-.81-3.75-1.22-5.63"/>
      <path id="path375" class="cls-4" d="M147.66,223.67c-.4,1.88-.81,3.75-1.22,5.63-.14.65-4.25,1.35-5.01,1.58.76.22,4.87.92,5.01,1.58.4,1.88.81,3.75,1.22,5.63.41-1.88.81-3.75,1.22-5.63.14-.65,4.25-1.35,5.01-1.58-.76-.22-4.87-.92-5.01-1.58-.41-1.88-.81-3.75-1.22-5.63"/>
      <path id="path377" class="cls-4" d="M112.82,243.85c-.4,1.88-.81,3.75-1.22,5.63-.14.65-4.25,1.35-5.01,1.57.76.22,4.87.92,5.01,1.58.41,1.88.81,3.75,1.22,5.63.41-1.88.81-3.75,1.22-5.63.14-.65,4.25-1.35,5.01-1.58-.76-.22-4.87-.92-5.01-1.57-.41-1.88-.81-3.75-1.22-5.63"/>
      <path id="path379" class="cls-4" d="M95.38,243.85c-.41,1.88-.81,3.75-1.22,5.63-.14.65-4.25,1.35-5.01,1.57.76.22,4.87.92,5.01,1.58.41,1.88.81,3.75,1.22,5.63.41-1.88.81-3.75,1.22-5.63.14-.65,4.25-1.35,5.01-1.58-.76-.22-4.87-.92-5.01-1.57-.41-1.88-.81-3.75-1.22-5.63"/>
      <path id="path381" class="cls-4" d="M130.25,243.82c-.41,1.88-.81,3.75-1.22,5.63-.14.65-4.25,1.35-5.01,1.57.76.22,4.87.92,5.01,1.58.4,1.88.81,3.75,1.22,5.63.41-1.88.81-3.75,1.22-5.63.14-.65,4.25-1.35,5.01-1.58-.76-.22-4.87-.92-5.01-1.57-.4-1.88-.81-3.75-1.22-5.63"/>
      <path id="path383" class="cls-4" d="M77.99,243.87c-.41,1.88-.81,3.75-1.22,5.63-.14.65-4.25,1.35-5.01,1.58.76.22,4.87.92,5.01,1.58.41,1.88.81,3.75,1.22,5.63.41-1.88.81-3.75,1.22-5.63.14-.65,4.25-1.35,5.01-1.58-.76-.22-4.87-.92-5.01-1.58-.41-1.88-.81-3.75-1.22-5.63"/>
      <path id="path385" class="cls-4" d="M165.11,243.85c-.41,1.88-.81,3.75-1.22,5.63-.14.65-4.25,1.35-5.01,1.58.76.22,4.87.92,5.01,1.57.4,1.88.81,3.75,1.22,5.63.41-1.88.81-3.75,1.22-5.63.14-.65,4.25-1.35,5.01-1.57-.76-.22-4.87-.92-5.01-1.58-.41-1.88-.81-3.75-1.22-5.63"/>
      <path id="path387" class="cls-4" d="M147.66,243.85c-.4,1.88-.81,3.75-1.22,5.63-.14.65-4.25,1.35-5.01,1.58.76.22,4.87.92,5.01,1.57.4,1.88.81,3.75,1.22,5.63.41-1.88.81-3.75,1.22-5.63.14-.65,4.25-1.35,5.01-1.57-.76-.22-4.87-.92-5.01-1.58-.41-1.88-.81-3.75-1.22-5.63"/>
      <path id="path389" class="cls-4" d="M112.82,184.77c-.4,1.88-.81,3.75-1.22,5.63-.14.65-4.25,1.35-5.01,1.58.76.22,4.87.92,5.01,1.58.41,1.88.81,3.75,1.22,5.63.41-1.88.81-3.75,1.22-5.63.14-.65,4.25-1.36,5.01-1.58-.76-.22-4.87-.92-5.01-1.58-.41-1.88-.81-3.75-1.22-5.63"/>
      <path id="path391" class="cls-4" d="M95.38,184.77c-.41,1.88-.81,3.75-1.22,5.63-.14.65-4.25,1.35-5.01,1.58.76.22,4.87.92,5.01,1.58.41,1.88.81,3.75,1.22,5.63.41-1.88.81-3.75,1.22-5.63.14-.65,4.25-1.36,5.01-1.58-.76-.22-4.87-.92-5.01-1.58-.41-1.88-.81-3.75-1.22-5.63"/>
      <path id="path393" class="cls-4" d="M130.25,184.73c-.41,1.88-.81,3.75-1.22,5.63-.14.65-4.25,1.35-5.01,1.58.76.22,4.87.92,5.01,1.58.4,1.88.81,3.75,1.22,5.63.41-1.88.81-3.75,1.22-5.63.14-.65,4.25-1.35,5.01-1.58-.76-.22-4.87-.92-5.01-1.58-.4-1.88-.81-3.75-1.22-5.63"/>
      <path id="path395" class="cls-4" d="M77.99,184.79c-.41,1.88-.81,3.75-1.22,5.63-.14.65-4.25,1.35-5.01,1.57.76.22,4.87.92,5.01,1.58.41,1.88.81,3.75,1.22,5.63.41-1.88.81-3.75,1.22-5.63.14-.65,4.25-1.36,5.01-1.58-.76-.22-4.87-.92-5.01-1.57-.41-1.88-.81-3.75-1.22-5.63"/>
      <path id="path397" class="cls-4" d="M165.11,184.76c-.41,1.88-.81,3.75-1.22,5.63-.14.65-4.25,1.35-5.01,1.58.76.22,4.87.92,5.01,1.58.4,1.88.81,3.75,1.22,5.63.41-1.88.81-3.75,1.22-5.63.14-.65,4.25-1.35,5.01-1.58-.76-.22-4.87-.92-5.01-1.58-.41-1.88-.81-3.75-1.22-5.63"/>
      <path id="path399" class="cls-4" d="M147.66,184.76c-.4,1.88-.81,3.75-1.22,5.63-.14.65-4.25,1.35-5.01,1.58.76.22,4.87.92,5.01,1.58.4,1.88.81,3.75,1.22,5.63.41-1.88.81-3.75,1.22-5.63.14-.65,4.25-1.35,5.01-1.58-.76-.22-4.87-.92-5.01-1.58-.41-1.88-.81-3.75-1.22-5.63"/>
      <path id="path401" class="cls-4" d="M95.38,104.07l-1.22,5.63c-.14.65-4.25,1.35-5.01,1.58.76.22,4.87.92,5.01,1.58l1.22,5.63c.41-1.88.81-3.75,1.22-5.63.14-.65,4.25-1.35,5.01-1.58-.76-.22-4.87-.92-5.01-1.58-.41-1.88-.81-3.75-1.22-5.63"/>
      <path id="path403" class="cls-4" d="M77.94,104.07l-1.22,5.63c-.14.65-4.25,1.35-5.01,1.58.76.22,4.87.92,5.01,1.58l1.22,5.63c.41-1.88.81-3.75,1.22-5.63.14-.65,4.25-1.35,5.01-1.58-.76-.22-4.87-.92-5.01-1.58-.41-1.88-.81-3.75-1.22-5.63"/>
      <path id="path405" class="cls-4" d="M130.26,104.07c-.4,1.88-.81,3.75-1.22,5.63-.14.65-4.25,1.35-5.01,1.58.76.22,4.87.92,5.01,1.58.41,1.88.81,3.75,1.22,5.63.41-1.88.81-3.75,1.22-5.63.14-.65,4.25-1.35,5.01-1.58-.76-.22-4.87-.92-5.01-1.58-.41-1.88-.81-3.75-1.22-5.63"/>
      <path id="path407" class="cls-4" d="M112.81,104.07c-.41,1.88-.81,3.75-1.22,5.63-.14.65-4.25,1.35-5.01,1.58.76.22,4.87.92,5.01,1.58.4,1.88.81,3.75,1.22,5.63.41-1.88.81-3.75,1.22-5.63.14-.65,4.25-1.35,5.01-1.58-.76-.22-4.87-.92-5.01-1.58-.41-1.88-.81-3.75-1.22-5.63"/>
      <path id="path409" class="cls-4" d="M77.95,83.88c-.41,1.88-.81,3.75-1.22,5.63-.14.65-4.25,1.35-5.01,1.58.76.22,4.87.92,5.01,1.58.41,1.88.81,3.75,1.22,5.63.41-1.88.81-3.75,1.22-5.63.14-.65,4.25-1.35,5.01-1.58-.76-.22-4.87-.92-5.01-1.58-.41-1.88-.81-3.75-1.22-5.63"/>
      <path id="path411" class="cls-4" d="M95.38,83.89c-.41,1.88-.81,3.75-1.22,5.63-.14.65-4.25,1.35-5.01,1.58.76.22,4.87.92,5.01,1.58l1.22,5.63c.41-1.88.81-3.75,1.22-5.63.14-.65,4.25-1.35,5.01-1.58-.76-.22-4.87-.92-5.01-1.58-.41-1.88-.81-3.75-1.22-5.63"/>
      <path id="path413" class="cls-4" d="M112.82,83.89c-.4,1.88-.81,3.75-1.22,5.63-.14.65-4.25,1.35-5.01,1.58.76.22,4.87.92,5.01,1.58.41,1.88.81,3.75,1.22,5.63l1.22-5.63c.14-.65,4.25-1.35,5.01-1.58-.76-.22-4.87-.92-5.01-1.58-.41-1.88-.81-3.75-1.22-5.63"/>
      <path id="path415" class="cls-4" d="M130.26,83.89c-.41,1.88-.81,3.75-1.22,5.63-.14.65-4.25,1.35-5.01,1.58.76.22,4.87.92,5.01,1.58.4,1.88.81,3.75,1.22,5.63.41-1.88.81-3.75,1.22-5.63.14-.65,4.25-1.35,5.01-1.58-.76-.22-4.87-.92-5.01-1.58-.41-1.88-.81-3.75-1.22-5.63"/>
      <path id="path417" class="cls-4" d="M165.13,104.04c-.4,1.88-.81,3.75-1.22,5.63-.14.65-4.25,1.35-5.01,1.57.76.22,4.87.92,5.01,1.58.41,1.88.81,3.75,1.22,5.63.4-1.88.81-3.75,1.22-5.63.14-.65,4.25-1.35,5.01-1.58-.76-.22-4.87-.92-5.01-1.57-.41-1.88-.81-3.75-1.22-5.63"/>
      <path id="path419" class="cls-4" d="M165.14,83.89c-.41,1.88-.81,3.75-1.22,5.63-.14.65-4.25,1.35-5.01,1.58.76.22,4.87.92,5.01,1.58.41,1.88.81,3.75,1.22,5.63.4-1.88.81-3.75,1.22-5.63.14-.65,4.25-1.35,5.01-1.58-.76-.22-4.87-.92-5.01-1.58-.41-1.88-.81-3.75-1.22-5.63"/>
      <path id="path421" class="cls-4" d="M147.69,104.04c-.41,1.88-.81,3.75-1.22,5.63-.14.65-4.25,1.35-5.01,1.57.76.22,4.87.92,5.01,1.58.4,1.88.81,3.75,1.22,5.63.41-1.88.81-3.75,1.22-5.63.14-.65,4.25-1.35,5.01-1.58-.76-.22-4.87-.92-5.01-1.57-.4-1.88-.81-3.75-1.22-5.63"/>
      <path id="path423" class="cls-4" d="M147.7,83.89c-.4,1.88-.81,3.75-1.22,5.63-.14.65-4.25,1.35-5.01,1.58.76.22,4.87.92,5.01,1.58.41,1.88.81,3.75,1.22,5.63.41-1.88.81-3.75,1.22-5.63.14-.65,4.25-1.35,5.01-1.58-.76-.22-4.87-.92-5.01-1.58-.41-1.88-.81-3.75-1.22-5.63"/>
      <path id="path425" class="cls-4" d="M95.38,63.72c-.41,1.88-.81,3.75-1.22,5.63-.14.65-4.25,1.35-5.01,1.58.76.22,4.87.92,5.01,1.57.41,1.88.81,3.75,1.22,5.63.41-1.88.81-3.75,1.22-5.63.14-.65,4.25-1.35,5.01-1.57-.76-.22-4.87-.92-5.01-1.58-.41-1.88-.81-3.75-1.22-5.63"/>
      <path id="path427" class="cls-4" d="M77.94,63.72c-.41,1.88-.81,3.75-1.22,5.63-.14.65-4.25,1.35-5.01,1.58.76.22,4.87.92,5.01,1.57.41,1.88.81,3.75,1.22,5.63.41-1.88.81-3.75,1.22-5.63.14-.65,4.25-1.35,5.01-1.57-.76-.22-4.87-.92-5.01-1.58-.41-1.88-.81-3.75-1.22-5.63"/>
      <path id="path429" class="cls-4" d="M130.26,63.72c-.4,1.88-.81,3.75-1.22,5.63-.14.65-4.25,1.35-5.01,1.58.76.22,4.87.92,5.01,1.57.41,1.88.81,3.75,1.22,5.63.41-1.88.81-3.75,1.22-5.63.14-.65,4.25-1.35,5.01-1.57-.76-.22-4.87-.92-5.01-1.58-.41-1.88-.81-3.75-1.22-5.63"/>
      <path id="path431" class="cls-4" d="M112.81,63.72c-.41,1.88-.81,3.75-1.22,5.63-.14.65-4.25,1.35-5.01,1.58.76.22,4.87.92,5.01,1.57.4,1.88.81,3.75,1.22,5.63.41-1.88.81-3.75,1.22-5.63.14-.65,4.25-1.35,5.01-1.57-.76-.22-4.87-.92-5.01-1.58-.41-1.88-.81-3.75-1.22-5.63"/>
      <path id="path433" class="cls-4" d="M77.95,43.53c-.41,1.88-.81,3.75-1.22,5.63-.14.65-4.25,1.35-5.01,1.58.76.22,4.87.92,5.01,1.58.41,1.88.81,3.75,1.22,5.63.41-1.88.81-3.75,1.22-5.63.14-.65,4.25-1.35,5.01-1.58-.76-.22-4.87-.92-5.01-1.58-.41-1.88-.81-3.75-1.22-5.63"/>
      <path id="path435" class="cls-4" d="M95.38,43.54l-1.22,5.63c-.14.65-4.25,1.35-5.01,1.58.76.22,4.87.92,5.01,1.58l1.22,5.63c.41-1.88.81-3.75,1.22-5.63.14-.65,4.25-1.35,5.01-1.58-.76-.22-4.87-.92-5.01-1.58-.41-1.88-.81-3.75-1.22-5.63"/>
      <path id="path437" class="cls-4" d="M112.82,43.54c-.4,1.88-.81,3.75-1.22,5.63-.14.65-4.25,1.35-5.01,1.58.76.22,4.87.92,5.01,1.58.41,1.88.81,3.75,1.22,5.63l1.22-5.63c.14-.65,4.25-1.35,5.01-1.58-.76-.22-4.87-.92-5.01-1.58l-1.22-5.63"/>
      <path id="path439" class="cls-4" d="M130.26,43.54c-.41,1.88-.81,3.75-1.22,5.63-.14.65-4.25,1.35-5.01,1.58.76.22,4.87.92,5.01,1.58.4,1.88.81,3.75,1.22,5.63.41-1.88.81-3.75,1.22-5.63.14-.65,4.25-1.35,5.01-1.58-.76-.22-4.87-.92-5.01-1.58-.41-1.88-.81-3.75-1.22-5.63"/>
      <path id="path441" class="cls-4" d="M165.13,63.69c-.4,1.88-.81,3.75-1.22,5.63-.14.65-4.25,1.35-5.01,1.58.76.22,4.87.92,5.01,1.58.41,1.88.81,3.75,1.22,5.63.4-1.88.81-3.75,1.22-5.63.14-.65,4.25-1.35,5.01-1.58-.76-.22-4.87-.92-5.01-1.58-.41-1.88-.81-3.75-1.22-5.63"/>
      <path id="path443" class="cls-4" d="M165.14,43.54c-.41,1.88-.81,3.75-1.22,5.63-.14.65-4.25,1.35-5.01,1.58.76.22,4.87.92,5.01,1.58.41,1.88.81,3.75,1.22,5.63.4-1.88.81-3.75,1.22-5.63.14-.65,4.25-1.35,5.01-1.58-.76-.22-4.87-.92-5.01-1.58-.41-1.88-.81-3.75-1.22-5.63"/>
      <path id="path445" class="cls-4" d="M147.69,63.69c-.41,1.88-.81,3.75-1.22,5.63-.14.65-4.25,1.35-5.01,1.58.76.22,4.87.92,5.01,1.58.4,1.88.81,3.75,1.22,5.63.41-1.88.81-3.75,1.22-5.63.14-.65,4.25-1.35,5.01-1.58-.76-.22-4.87-.92-5.01-1.58-.4-1.88-.81-3.75-1.22-5.63"/>
      <path id="path447" class="cls-4" d="M147.7,43.54c-.4,1.88-.81,3.75-1.22,5.63-.14.65-4.25,1.35-5.01,1.58.76.22,4.87.92,5.01,1.58.41,1.88.81,3.75,1.22,5.63.41-1.88.81-3.75,1.22-5.63.14-.65,4.25-1.35,5.01-1.58-.76-.22-4.87-.92-5.01-1.58-.41-1.88-.81-3.75-1.22-5.63"/>
      <path id="path449" class="cls-4" d="M43.05,164.61c-.41,1.88-.81,3.75-1.22,5.63-.14.65-4.25,1.35-5.01,1.58.76.22,4.87.92,5.01,1.58.41,1.88.81,3.75,1.22,5.63.41-1.88.81-3.75,1.22-5.63.14-.65,4.25-1.35,5.01-1.58-.76-.22-4.87-.92-5.01-1.58-.41-1.88-.81-3.75-1.22-5.63"/>
      <path id="path451" class="cls-4" d="M43.08,144.45l-1.22,5.63c-.14.65-4.25,1.35-5.01,1.58.76.22,4.87.92,5.01,1.58l1.22,5.63c.41-1.88.81-3.75,1.22-5.63.14-.65,4.25-1.35,5.01-1.58-.76-.22-4.87-.92-5.01-1.58-.41-1.88-.81-3.75-1.22-5.63"/>
      <path id="path453" class="cls-4" d="M43.1,124.24c-.41,1.88-.81,3.75-1.22,5.63-.14.65-4.25,1.35-5.01,1.58.76.22,4.87.92,5.01,1.58l1.22,5.63c.41-1.88.81-3.75,1.22-5.63.14-.65,4.25-1.35,5.01-1.58-.76-.22-4.87-.92-5.01-1.58-.41-1.88-.81-3.75-1.22-5.63"/>
      <path id="path455" class="cls-4" d="M43.06,203.5c-.41,1.88-.81,3.75-1.22,5.63-.14.65-4.25,1.35-5.01,1.57.76.22,4.87.92,5.01,1.58.41,1.88.81,3.75,1.22,5.63.41-1.88.81-3.75,1.22-5.63.14-.65,4.25-1.36,5.01-1.58-.76-.22-4.87-.92-5.01-1.57-.41-1.88-.81-3.75-1.22-5.63"/>
      <path id="path457" class="cls-4" d="M43.06,223.68l-1.22,5.63c-.14.65-4.25,1.35-5.01,1.58.76.22,4.87.92,5.01,1.58l1.22,5.63c.41-1.88.81-3.75,1.22-5.63.14-.65,4.25-1.35,5.01-1.58-.76-.22-4.87-.92-5.01-1.58-.41-1.88-.81-3.75-1.22-5.63"/>
      <path id="path459" class="cls-4" d="M43.06,243.85c-.41,1.88-.81,3.75-1.22,5.63-.14.65-4.25,1.35-5.01,1.57.76.22,4.87.92,5.01,1.58.41,1.88.81,3.75,1.22,5.63.41-1.88.81-3.75,1.22-5.63.14-.65,4.25-1.35,5.01-1.58-.76-.22-4.87-.92-5.01-1.57-.41-1.88-.81-3.75-1.22-5.63"/>
      <path id="path461" class="cls-4" d="M43.06,184.77c-.41,1.88-.81,3.75-1.22,5.63-.14.65-4.25,1.35-5.01,1.58.76.22,4.87.92,5.01,1.58.41,1.88.81,3.75,1.22,5.63.41-1.88.81-3.75,1.22-5.63.14-.65,4.25-1.35,5.01-1.58-.76-.22-4.87-.92-5.01-1.58-.41-1.88-.81-3.75-1.22-5.63"/>
      <path id="path463" class="cls-4" d="M43.07,104.06c-.41,1.88-.81,3.75-1.22,5.63-.14.65-4.25,1.35-5.01,1.58.76.22,4.87.92,5.01,1.58.41,1.88.81,3.75,1.22,5.63.41-1.88.81-3.75,1.22-5.63.14-.65,4.25-1.35,5.01-1.58-.76-.22-4.87-.92-5.01-1.58-.41-1.88-.81-3.75-1.22-5.63"/>
      <path id="path465" class="cls-4" d="M43.06,83.89c-.41,1.88-.81,3.75-1.22,5.63-.14.65-4.25,1.35-5.01,1.58.76.22,4.87.92,5.01,1.58l1.22,5.63c.41-1.88.81-3.75,1.22-5.63.14-.65,4.25-1.35,5.01-1.58-.76-.22-4.87-.92-5.01-1.58-.41-1.88-.81-3.75-1.22-5.63"/>
      <path id="path467" class="cls-4" d="M43.07,63.71c-.41,1.88-.81,3.75-1.22,5.63-.14.65-4.25,1.35-5.01,1.58.76.22,4.87.92,5.01,1.58.41,1.88.81,3.75,1.22,5.63.41-1.88.81-3.75,1.22-5.63.14-.65,4.25-1.35,5.01-1.58-.76-.22-4.87-.92-5.01-1.58-.41-1.88-.81-3.75-1.22-5.63"/>
      <path id="path469" class="cls-4" d="M43.06,43.54l-1.22,5.63c-.14.65-4.25,1.35-5.01,1.58.76.22,4.87.92,5.01,1.58l1.22,5.63c.41-1.88.81-3.75,1.22-5.63.14-.65,4.25-1.35,5.01-1.58-.76-.22-4.87-.92-5.01-1.58-.41-1.88-.81-3.75-1.22-5.63"/>
      <path id="path471" class="cls-4" d="M60.49,164.61c-.41,1.88-.81,3.75-1.22,5.63-.14.65-4.25,1.35-5.01,1.58.76.22,4.87.92,5.01,1.58.41,1.88.81,3.75,1.22,5.63.41-1.88.81-3.75,1.22-5.63.14-.65,4.25-1.35,5.01-1.58-.76-.22-4.87-.92-5.01-1.58-.41-1.88-.81-3.75-1.22-5.63"/>
      <path id="path473" class="cls-4" d="M60.52,144.45l-1.22,5.63c-.14.65-4.25,1.35-5.01,1.58.76.22,4.87.92,5.01,1.58l1.22,5.63c.41-1.88.81-3.75,1.22-5.63.14-.65,4.25-1.35,5.01-1.58-.76-.22-4.87-.92-5.01-1.58-.41-1.88-.81-3.75-1.22-5.63"/>
      <path id="path475" class="cls-4" d="M60.54,124.24c-.41,1.88-.81,3.75-1.22,5.63-.14.65-4.25,1.35-5.01,1.58.76.22,4.87.92,5.01,1.58l1.22,5.63c.41-1.88.81-3.75,1.22-5.63.14-.65,4.25-1.35,5.01-1.58-.76-.22-4.87-.92-5.01-1.58-.41-1.88-.81-3.75-1.22-5.63"/>
      <path id="path477" class="cls-4" d="M60.5,203.5c-.41,1.88-.81,3.75-1.22,5.63-.14.65-4.25,1.35-5.01,1.57.76.22,4.87.92,5.01,1.58.41,1.88.81,3.75,1.22,5.63.41-1.88.81-3.75,1.22-5.63.14-.65,4.25-1.36,5.01-1.58-.76-.22-4.87-.92-5.01-1.57-.41-1.88-.81-3.75-1.22-5.63"/>
      <path id="path479" class="cls-4" d="M60.5,223.68c-.41,1.88-.81,3.75-1.22,5.63-.14.65-4.25,1.35-5.01,1.58.76.22,4.87.92,5.01,1.58.41,1.88.81,3.75,1.22,5.63l1.22-5.63c.14-.65,4.25-1.35,5.01-1.58-.76-.22-4.87-.92-5.01-1.58l-1.22-5.63"/>
      <path id="path481" class="cls-4" d="M60.5,243.85c-.41,1.88-.81,3.75-1.22,5.63-.14.65-4.25,1.35-5.01,1.57.76.22,4.87.92,5.01,1.58.41,1.88.81,3.75,1.22,5.63.41-1.88.81-3.75,1.22-5.63.14-.65,4.25-1.35,5.01-1.58-.76-.22-4.87-.92-5.01-1.57-.41-1.88-.81-3.75-1.22-5.63"/>
      <path id="path483" class="cls-4" d="M60.5,184.77c-.41,1.88-.81,3.75-1.22,5.63-.14.65-4.25,1.35-5.01,1.58.76.22,4.87.92,5.01,1.58.41,1.88.81,3.75,1.22,5.63.41-1.88.81-3.75,1.22-5.63.14-.65,4.25-1.36,5.01-1.58-.76-.22-4.87-.92-5.01-1.58-.41-1.88-.81-3.75-1.22-5.63"/>
      <path id="path485" class="cls-4" d="M60.51,104.06l-1.22,5.63c-.14.65-4.25,1.35-5.01,1.58.76.22,4.87.92,5.01,1.58l1.22,5.63c.41-1.88.81-3.75,1.22-5.63.14-.65,4.25-1.35,5.01-1.58-.76-.22-4.87-.92-5.01-1.58-.41-1.88-.81-3.75-1.22-5.63"/>
      <path id="path487" class="cls-4" d="M60.5,83.89c-.41,1.88-.81,3.75-1.22,5.63-.14.65-4.25,1.35-5.01,1.58.76.22,4.87.92,5.01,1.58.41,1.88.81,3.75,1.22,5.63l1.22-5.63c.14-.65,4.25-1.35,5.01-1.58-.76-.22-4.87-.92-5.01-1.58-.41-1.88-.81-3.75-1.22-5.63"/>
      <path id="path489" class="cls-4" d="M60.51,63.71c-.41,1.88-.81,3.75-1.22,5.63-.14.65-4.25,1.35-5.01,1.58.76.22,4.87.92,5.01,1.58l1.22,5.63c.41-1.88.81-3.75,1.22-5.63.14-.65,4.25-1.35,5.01-1.58-.76-.22-4.87-.92-5.01-1.58-.41-1.88-.81-3.75-1.22-5.63"/>
      <path id="path491" class="cls-4" d="M60.5,43.54c-.41,1.88-.81,3.75-1.22,5.63-.14.65-4.25,1.35-5.01,1.58.76.22,4.87.92,5.01,1.58.41,1.88.81,3.75,1.22,5.63l1.22-5.63c.14-.65,4.25-1.35,5.01-1.58-.76-.22-4.87-.92-5.01-1.58l-1.22-5.63"/>
      <path id="path493" class="cls-2" d="M10.36,8.23c-2.93,0-1.87,8.01-1.87,9.62v269.59c0,2.19-.83,6.85,2.4,6.85h185.76c3.42,0,2.75-3.67,2.75-6.14V18.79c0-2.55.58-5.89,0-8.4,0-3.72-10.53-2.16-12.6-2.16H10.36"/>
    </g>
  </g>
</svg>